<?xml version="1.0" standalone="no"?>
<!DOCTYPE svg PUBLIC "-//W3C//DTD SVG 20010904//EN"
 "http://www.w3.org/TR/2001/REC-SVG-20010904/DTD/svg10.dtd">
<svg version="1.0" xmlns="http://www.w3.org/2000/svg"
 width="1280.000000pt" height="1280.000000pt" viewBox="0 0 1280.000000 1280.000000"
 preserveAspectRatio="xMidYMid meet">
<metadata>
Created by potrace 1.14, written by Peter Selinger 2001-2017
</metadata>
<g transform="translate(0.000000,1280.000000) scale(0.100000,-0.100000)"
fill="#000000" stroke="none">
<path d="M5067 12793 c-1 0 -36 -4 -77 -7 -170 -14 -322 -40 -485 -81 -33 -9
-71 -18 -84 -21 -13 -3 -32 -9 -43 -15 -10 -5 -23 -7 -28 -4 -6 3 -10 1 -10
-6 0 -7 -3 -10 -6 -7 -5 6 -142 -40 -251 -85 -34 -14 -64 -22 -67 -19 -3 3 -6
0 -6 -6 0 -7 -5 -12 -11 -12 -17 0 -209 -95 -297 -147 -41 -24 -78 -43 -83
-43 -5 0 -9 -4 -9 -9 0 -5 -8 -11 -17 -15 -18 -5 -53 -26 -63 -36 -14 -14 -70
-50 -79 -50 -5 0 -11 -3 -13 -7 -1 -5 -48 -42 -103 -84 -55 -42 -120 -93 -145
-115 -71 -62 -301 -294 -345 -348 -22 -27 -45 -54 -50 -60 -6 -6 -29 -36 -53
-66 -23 -30 -46 -60 -52 -67 -5 -7 -10 -15 -10 -18 0 -2 -10 -16 -21 -29 -12
-14 -27 -34 -33 -45 -16 -29 -106 -172 -126 -201 -9 -14 -21 -37 -25 -50 -4
-14 -11 -27 -15 -30 -6 -4 -103 -197 -106 -210 0 -3 -7 -18 -14 -35 -7 -16
-14 -32 -15 -35 0 -3 -6 -15 -13 -27 -7 -13 -10 -23 -6 -23 3 0 2 -6 -4 -12
-5 -7 -28 -67 -50 -133 -35 -102 -48 -146 -77 -255 -9 -36 -56 -268 -60 -300
-7 -52 -15 -124 -24 -220 -12 -118 -14 -6977 -2 -6985 5 -3 12 -1 16 5 4 7 12
7 26 0 10 -6 19 -7 19 -3 0 4 35 8 78 9 74 1 210 11 248 18 11 2 41 7 67 10
26 4 70 11 98 16 27 5 53 9 57 8 4 -1 27 4 52 12 25 7 54 14 66 16 11 1 40 8
65 15 24 7 49 13 54 14 71 15 275 88 415 148 113 48 352 172 390 201 8 7 41
28 73 46 31 19 57 38 57 43 0 4 4 6 8 3 5 -3 20 6 35 20 14 13 29 24 32 24 3
0 11 4 18 10 7 5 64 51 127 102 114 91 346 316 427 413 36 43 73 91 163 207
11 14 20 31 20 36 0 6 3 12 8 14 9 4 62 74 62 83 0 9 54 90 63 93 4 2 7 12 7
22 0 10 3 20 8 22 31 14 250 493 277 608 2 8 15 56 30 105 14 50 28 97 30 105
6 23 44 212 49 240 3 14 5 25 6 25 1 0 3 17 5 39 2 21 6 57 9 80 11 76 16 131
20 223 3 51 7 97 10 102 4 5 2 12 -2 15 -5 3 -6 26 -2 51 4 25 3 45 -1 45 -4
0 -4 14 1 30 5 16 6 30 2 30 -8 0 -7 68 1 76 3 3 2 16 -3 28 -4 13 -4 29 0 36
5 8 5 21 0 31 -5 9 -7 19 -4 22 8 8 9 216 1 223 -3 3 -2 16 3 29 5 13 6 26 2
29 -8 8 -5 103 3 116 3 6 2 10 -4 10 -6 0 -6 11 -1 30 5 17 5 30 0 30 -5 0 -5
12 -1 28 4 15 4 39 0 55 -4 15 -3 27 1 27 5 0 5 13 0 29 -4 16 -6 32 -2 35 8
8 8 66 0 66 -4 0 -3 14 2 30 5 17 6 30 2 30 -8 0 -7 68 1 76 3 3 2 16 -3 28
-4 13 -4 29 0 36 5 8 5 21 0 31 -5 9 -7 19 -4 22 8 8 9 216 1 223 -3 3 -2 17
3 30 6 14 6 26 -1 29 -5 4 -7 10 -4 15 7 12 10 239 3 246 -4 3 -3 16 2 29 5
13 6 26 2 29 -8 8 -5 103 3 116 3 6 2 10 -4 10 -6 0 -6 11 -1 30 5 17 5 30 0
30 -5 0 -5 12 -1 28 4 15 4 39 0 55 -4 15 -3 27 1 27 5 0 5 13 0 29 -4 16 -6
32 -2 35 8 8 8 66 0 66 -4 0 -3 14 2 30 5 17 6 30 2 30 -8 0 -7 68 1 76 3 3 2
16 -3 28 -4 13 -4 29 0 36 5 8 5 21 0 31 -5 9 -7 19 -4 22 8 8 9 216 1 223 -3
3 -2 16 3 29 5 13 6 26 2 29 -8 8 -5 103 3 116 3 6 2 10 -4 10 -6 0 -6 11 -1
30 5 17 5 30 0 30 -5 0 -5 12 -1 28 4 15 4 39 0 55 -4 15 -3 27 1 27 5 0 5 13
0 29 -4 16 -6 32 -2 35 8 8 8 66 0 66 -4 0 -3 14 2 30 5 17 6 30 2 30 -8 0 -7
68 1 76 3 3 2 16 -3 28 -4 13 -4 29 0 36 5 8 5 21 0 31 -5 9 -7 19 -4 22 8 8
9 216 1 223 -3 3 -2 16 3 29 5 13 6 26 2 29 -8 8 -5 103 3 116 3 6 2 10 -4 10
-6 0 -6 11 -1 30 5 17 5 30 0 30 -5 0 -5 12 -1 28 4 15 4 39 0 55 -4 15 -3 27
1 27 5 0 5 13 0 29 -4 16 -6 32 -2 35 8 8 8 66 0 66 -4 0 -3 14 2 30 5 17 6
30 2 30 -8 0 -7 68 1 76 3 3 2 16 -3 28 -4 13 -4 29 0 36 5 8 5 21 0 31 -5 9
-7 19 -4 22 8 8 9 216 1 223 -3 3 -2 16 3 29 5 13 6 26 2 29 -8 8 -5 103 3
116 3 6 2 10 -4 10 -6 0 -6 11 -1 30 5 17 5 30 0 30 -5 0 -5 12 -1 28 4 15 4
39 0 55 -4 15 -3 27 1 27 5 0 5 13 0 29 -4 16 -6 32 -2 35 8 8 8 66 0 66 -4 0
-3 14 2 30 5 17 6 30 2 30 -8 0 -7 68 1 76 3 3 2 16 -3 28 -4 13 -4 29 0 36 5
8 5 21 0 31 -5 9 -7 19 -4 22 8 8 9 216 1 223 -3 3 -2 16 3 29 5 13 6 26 2 29
-8 8 -5 103 3 116 3 6 2 10 -4 10 -6 0 -6 11 -1 30 5 17 5 30 0 30 -5 0 -5 12
-1 28 4 15 4 39 0 55 -4 15 -3 27 1 27 5 0 5 13 0 29 -4 16 -6 32 -2 35 8 8 8
66 0 66 -4 0 -3 14 2 30 5 17 6 30 2 30 -8 0 -7 68 1 76 3 3 2 16 -3 28 -4 13
-4 29 0 36 5 8 5 21 0 31 -5 9 -7 19 -4 22 8 8 10 227 3 227 -4 0 -4 15 0 33
5 18 5 41 1 52 -4 11 -5 24 -3 28 4 6 -204 7 -210 0z"/>
<path d="M4590 2562 c0 -4 -35 -7 -78 -8 -98 -1 -214 -13 -302 -30 -14 -3 -38
-7 -55 -10 -74 -13 -211 -47 -219 -55 -6 -5 -18 -9 -28 -9 -17 0 -109 -29
-168 -53 -14 -6 -29 -11 -35 -13 -5 -1 -23 -8 -40 -15 -16 -7 -33 -12 -37 -11
-5 1 -8 -3 -8 -8 0 -6 -4 -10 -9 -10 -17 0 -141 -60 -229 -111 -47 -27 -89
-49 -93 -49 -5 0 -9 -4 -9 -10 0 -5 -7 -10 -15 -10 -8 0 -15 -4 -15 -8 0 -5
-11 -14 -25 -20 -14 -7 -31 -17 -38 -22 -7 -6 -43 -34 -82 -62 -38 -29 -75
-57 -81 -63 -6 -5 -35 -30 -63 -54 -72 -61 -186 -174 -184 -182 1 -3 -9 -12
-22 -19 -14 -7 -25 -16 -25 -20 0 -3 -14 -22 -31 -41 -34 -37 -48 -55 -114
-144 -25 -33 -49 -65 -55 -72 -6 -7 -15 -24 -22 -38 -6 -14 -15 -25 -20 -25
-4 0 -8 -7 -8 -15 0 -8 -4 -15 -10 -15 -5 0 -10 -5 -10 -10 0 -6 -19 -43 -43
-83 -107 -180 -226 -474 -263 -652 -2 -11 -6 -29 -8 -40 -2 -11 -7 -31 -10
-45 -3 -14 -8 -36 -10 -50 -3 -14 -7 -36 -11 -50 -5 -24 -12 -75 -20 -150 -2
-19 -7 -90 -10 -158 l-7 -122 3163 3 c1740 2 3182 7 3204 10 22 4 51 8 65 11
14 2 48 7 75 11 41 6 135 26 235 51 176 43 410 139 592 241 128 73 168 98 168
106 0 4 5 7 10 7 6 0 16 4 23 10 57 46 76 60 85 60 6 0 12 3 14 8 2 4 28 27
58 52 103 84 237 213 313 301 21 24 46 53 56 64 57 63 221 304 221 324 0 6 4
11 9 11 5 0 15 16 22 35 7 19 16 35 19 35 3 0 17 25 30 55 13 30 28 55 33 55
4 0 6 4 3 8 -2 4 9 34 25 65 16 31 26 57 23 57 -4 0 -2 6 4 13 18 23 104 279
118 356 3 12 11 51 19 85 13 58 21 103 31 174 2 17 6 49 9 70 12 89 15 271 4
277 -14 9 -137 11 -145 2 -4 -3 -15 -2 -25 3 -11 7 -20 7 -24 0 -3 -6 -15 -6
-30 0 -15 6 -27 6 -30 0 -4 -7 -13 -6 -25 0 -13 7 -21 7 -25 0 -4 -7 -12 -7
-25 0 -13 7 -21 7 -25 0 -4 -6 -13 -7 -24 -1 -10 6 -23 6 -31 1 -8 -5 -19 -5
-25 0 -6 5 -17 5 -25 0 -7 -4 -24 -4 -37 1 -14 5 -23 5 -23 -1 0 -6 -9 -6 -23
-1 -13 5 -30 5 -39 0 -11 -6 -19 -5 -23 1 -4 7 -12 7 -25 0 -13 -7 -21 -7 -25
0 -4 6 -13 7 -23 1 -11 -6 -24 -6 -34 0 -11 6 -19 6 -23 -1 -4 -7 -12 -7 -25
0 -13 7 -21 7 -25 0 -4 -7 -12 -7 -25 0 -13 7 -21 7 -25 0 -4 -6 -13 -7 -24
-1 -10 6 -23 6 -31 1 -8 -5 -19 -5 -25 0 -6 5 -17 5 -25 0 -7 -4 -24 -4 -37 1
-14 5 -23 5 -23 -1 0 -6 -9 -6 -23 -1 -13 5 -30 5 -39 0 -11 -6 -19 -5 -23 1
-4 7 -12 7 -25 0 -13 -7 -21 -7 -25 0 -4 6 -13 7 -23 1 -11 -6 -24 -6 -34 0
-11 6 -19 6 -23 -1 -4 -7 -12 -7 -25 0 -13 7 -21 7 -25 0 -4 -7 -12 -7 -25 0
-13 7 -21 7 -25 0 -4 -6 -13 -7 -24 -1 -10 6 -23 6 -31 1 -8 -5 -19 -5 -25 0
-6 5 -17 5 -25 0 -7 -4 -24 -4 -37 1 -14 5 -23 5 -23 -1 0 -6 -9 -6 -23 -1
-13 5 -30 5 -39 0 -11 -6 -19 -5 -23 1 -4 7 -12 7 -25 0 -13 -7 -21 -7 -25 0
-4 6 -13 7 -23 1 -11 -6 -24 -6 -34 0 -11 6 -19 6 -23 -1 -4 -7 -12 -7 -25 0
-13 7 -21 7 -25 0 -4 -7 -12 -7 -25 0 -13 7 -21 7 -25 0 -4 -6 -13 -7 -24 -1
-10 6 -23 6 -31 1 -8 -5 -19 -5 -25 0 -6 5 -17 5 -25 0 -7 -4 -24 -4 -37 1
-14 5 -23 5 -23 -1 0 -6 -9 -6 -23 -1 -13 5 -30 5 -39 0 -11 -6 -19 -5 -23 1
-4 7 -12 7 -25 0 -13 -7 -21 -7 -25 0 -4 6 -13 7 -23 1 -11 -6 -24 -6 -34 0
-11 6 -19 6 -23 -1 -4 -7 -12 -7 -25 0 -13 7 -21 7 -25 0 -4 -7 -12 -7 -25 0
-13 7 -21 7 -25 0 -4 -6 -13 -7 -24 -1 -10 6 -23 6 -31 1 -8 -5 -19 -5 -25 0
-6 5 -17 5 -25 0 -7 -4 -24 -4 -37 1 -14 5 -23 5 -23 -1 0 -6 -9 -6 -23 -1
-13 5 -30 5 -39 0 -11 -6 -19 -5 -23 1 -4 7 -12 7 -25 0 -13 -7 -21 -7 -25 0
-4 6 -13 7 -23 1 -11 -6 -24 -6 -34 0 -11 6 -19 6 -23 -1 -4 -7 -12 -7 -25 0
-13 7 -21 7 -25 0 -4 -7 -12 -7 -25 0 -13 7 -21 7 -25 0 -4 -6 -13 -7 -24 -1
-10 6 -23 6 -31 1 -8 -5 -19 -5 -25 0 -6 5 -17 5 -25 0 -7 -4 -24 -4 -37 1
-14 5 -23 5 -23 -1 0 -6 -9 -6 -23 -1 -13 5 -30 5 -39 0 -11 -6 -19 -5 -23 1
-4 7 -12 7 -25 0 -13 -7 -21 -7 -25 0 -4 6 -13 7 -23 1 -11 -6 -24 -6 -34 0
-11 6 -19 6 -23 -1 -4 -7 -12 -7 -25 0 -13 7 -21 7 -25 0 -4 -7 -12 -7 -25 0
-13 7 -21 7 -25 0 -4 -6 -13 -7 -24 -1 -10 6 -23 6 -31 1 -8 -5 -19 -5 -25 0
-6 5 -17 5 -25 0 -7 -4 -24 -4 -37 1 -14 5 -23 5 -23 -1 0 -6 -9 -6 -23 -1
-13 5 -30 5 -39 0 -11 -6 -19 -5 -23 1 -4 7 -12 7 -25 0 -13 -7 -21 -7 -25 0
-4 7 -12 7 -23 1 -10 -6 -23 -6 -34 0 -10 6 -19 5 -23 -1 -4 -7 -12 -7 -25 0
-13 7 -21 7 -25 0 -4 -7 -12 -7 -25 0 -13 7 -21 7 -25 0 -4 -6 -13 -7 -24 -1
-10 6 -23 6 -31 1 -8 -5 -19 -5 -25 0 -6 5 -17 5 -25 0 -7 -4 -24 -4 -37 1
-14 5 -23 5 -23 -1 0 -6 -9 -6 -23 -1 -13 5 -30 5 -39 0 -11 -6 -19 -5 -23 1
-4 7 -12 7 -25 0 -13 -7 -21 -7 -25 0 -4 6 -13 7 -23 1 -11 -6 -24 -6 -34 0
-11 6 -19 6 -23 -1 -4 -7 -12 -7 -25 0 -13 7 -21 7 -25 0 -4 -7 -12 -7 -25 0
-13 7 -21 7 -25 0 -4 -6 -13 -7 -24 -1 -10 6 -23 6 -31 1 -8 -5 -19 -5 -25 0
-6 5 -17 5 -25 0 -7 -4 -24 -4 -37 1 -14 5 -23 5 -23 -1 0 -6 -9 -6 -23 -1
-13 5 -30 5 -39 0 -11 -6 -19 -5 -23 1 -4 7 -12 7 -25 0 -13 -7 -21 -7 -25 0
-4 6 -13 7 -23 1 -11 -6 -24 -6 -34 0 -11 6 -19 6 -23 -1 -4 -7 -12 -7 -25 0
-13 7 -21 7 -25 0 -4 -7 -12 -7 -25 0 -13 7 -21 7 -25 0 -4 -6 -13 -7 -24 -1
-10 6 -23 6 -31 1 -8 -5 -19 -5 -25 0 -6 5 -17 5 -25 0 -7 -4 -24 -4 -37 1
-14 5 -23 5 -23 -1 0 -6 -9 -6 -23 -1 -13 5 -30 5 -39 0 -11 -6 -19 -5 -23 1
-4 7 -12 7 -25 0 -13 -7 -21 -7 -25 0 -4 6 -13 7 -23 1 -11 -6 -24 -6 -34 0
-11 6 -19 6 -23 -1 -4 -7 -12 -7 -25 0 -13 7 -21 7 -25 0 -4 -7 -12 -7 -25 0
-13 7 -21 7 -25 0 -4 -6 -13 -7 -24 -1 -10 6 -23 6 -31 1 -8 -5 -19 -5 -25 0
-6 5 -17 5 -25 0 -7 -4 -24 -4 -37 1 -14 5 -23 5 -23 -1 0 -6 -9 -6 -23 -1
-13 5 -30 5 -39 0 -11 -6 -19 -5 -23 1 -4 7 -12 7 -25 0 -13 -7 -21 -7 -25 0
-4 6 -13 7 -23 1 -11 -6 -24 -6 -34 0 -11 6 -19 6 -23 -1 -4 -7 -12 -7 -25 0
-13 7 -21 7 -25 0 -4 -7 -12 -7 -25 0 -13 7 -21 7 -25 0 -4 -6 -13 -7 -24 -1
-10 6 -23 6 -31 1 -8 -5 -19 -5 -25 0 -6 5 -17 5 -25 0 -7 -4 -24 -4 -37 1
-14 5 -23 5 -23 -1 0 -6 -9 -6 -23 -1 -13 5 -30 5 -39 0 -11 -6 -19 -5 -23 1
-4 7 -12 7 -25 0 -13 -7 -21 -7 -25 0 -4 6 -13 7 -23 1 -11 -6 -24 -6 -34 0
-11 6 -19 6 -23 -1 -4 -7 -12 -7 -25 0 -12 6 -21 7 -25 0 -4 -6 -15 -6 -30 0
-14 5 -25 6 -25 2z"/>
</g>
</svg>
