<svg width="449" height="77" viewBox="0 0 449 77" fill="none" xmlns="http://www.w3.org/2000/svg">
<path d="M67.7727 62.6818C64.1818 62.6818 61.0909 61.9545 58.5 60.5C55.9242 59.0303 53.9394 56.9545 52.5455 54.2727C51.1515 51.5758 50.4545 48.3864 50.4545 44.7045C50.4545 41.1136 51.1515 37.9621 52.5455 35.25C53.9394 32.5379 55.9015 30.4242 58.4318 28.9091C60.9773 27.3939 63.9621 26.6364 67.3864 26.6364C69.6894 26.6364 71.8333 27.0076 73.8182 27.75C75.8182 28.4773 77.5606 29.5758 79.0455 31.0455C80.5455 32.5152 81.7121 34.3636 82.5455 36.5909C83.3788 38.803 83.7955 41.3939 83.7955 44.3636V47.0227H54.3182V41.0227H74.6818C74.6818 39.6288 74.3788 38.3939 73.7727 37.3182C73.1667 36.2424 72.3258 35.4015 71.25 34.7955C70.1894 34.1742 68.9545 33.8636 67.5455 33.8636C66.0758 33.8636 64.7727 34.2045 63.6364 34.8864C62.5152 35.553 61.6364 36.4545 61 37.5909C60.3636 38.7121 60.0379 39.9621 60.0227 41.3409V47.0455C60.0227 48.7727 60.3409 50.2652 60.9773 51.5227C61.6288 52.7803 62.5455 53.75 63.7273 54.4318C64.9091 55.1136 66.3106 55.4545 67.9318 55.4545C69.0076 55.4545 69.9924 55.303 70.8864 55C71.7803 54.697 72.5455 54.2424 73.1818 53.6364C73.8182 53.0303 74.303 52.2879 74.6364 51.4091L83.5909 52C83.1364 54.1515 82.2045 56.0303 80.7955 57.6364C79.4015 59.2273 77.5985 60.4697 75.3864 61.3636C73.1894 62.2424 70.6515 62.6818 67.7727 62.6818ZM121.722 27.0909L109.517 62H98.608L86.4034 27.0909H96.6307L103.881 52.0682H104.244L111.472 27.0909H121.722ZM141.46 62.6818C137.869 62.6818 134.778 61.9545 132.188 60.5C129.612 59.0303 127.627 56.9545 126.233 54.2727C124.839 51.5758 124.142 48.3864 124.142 44.7045C124.142 41.1136 124.839 37.9621 126.233 35.25C127.627 32.5379 129.589 30.4242 132.119 28.9091C134.665 27.3939 137.65 26.6364 141.074 26.6364C143.377 26.6364 145.521 27.0076 147.506 27.75C149.506 28.4773 151.248 29.5758 152.733 31.0455C154.233 32.5152 155.4 34.3636 156.233 36.5909C157.066 38.803 157.483 41.3939 157.483 44.3636V47.0227H128.006V41.0227H148.369C148.369 39.6288 148.066 38.3939 147.46 37.3182C146.854 36.2424 146.013 35.4015 144.938 34.7955C143.877 34.1742 142.642 33.8636 141.233 33.8636C139.763 33.8636 138.46 34.2045 137.324 34.8864C136.203 35.553 135.324 36.4545 134.688 37.5909C134.051 38.7121 133.725 39.9621 133.71 41.3409V47.0455C133.71 48.7727 134.028 50.2652 134.665 51.5227C135.316 52.7803 136.233 53.75 137.415 54.4318C138.597 55.1136 139.998 55.4545 141.619 55.4545C142.695 55.4545 143.68 55.303 144.574 55C145.468 54.697 146.233 54.2424 146.869 53.6364C147.506 53.0303 147.991 52.2879 148.324 51.4091L157.278 52C156.824 54.1515 155.892 56.0303 154.483 57.6364C153.089 59.2273 151.286 60.4697 149.074 61.3636C146.877 62.2424 144.339 62.6818 141.46 62.6818ZM163.801 62V27.0909H173.188V33.1818H173.551C174.188 31.0152 175.256 29.3788 176.756 28.2727C178.256 27.1515 179.983 26.5909 181.938 26.5909C182.422 26.5909 182.945 26.6212 183.506 26.6818C184.066 26.7424 184.559 26.8258 184.983 26.9318V35.5227C184.528 35.3864 183.9 35.2652 183.097 35.1591C182.294 35.053 181.559 35 180.892 35C179.468 35 178.195 35.3106 177.074 35.9318C175.968 36.5379 175.089 37.3864 174.438 38.4773C173.801 39.5682 173.483 40.8258 173.483 42.25V62H163.801ZM204.983 62V15.4545H235.801V23.5682H214.824V34.6591H233.756V42.7727H214.824V62H204.983ZM242.239 62V27.0909H251.92V62H242.239ZM247.102 22.5909C245.663 22.5909 244.428 22.1136 243.398 21.1591C242.383 20.1894 241.875 19.0303 241.875 17.6818C241.875 16.3485 242.383 15.2045 243.398 14.25C244.428 13.2803 245.663 12.7955 247.102 12.7955C248.542 12.7955 249.769 13.2803 250.784 14.25C251.814 15.2045 252.33 16.3485 252.33 17.6818C252.33 19.0303 251.814 20.1894 250.784 21.1591C249.769 22.1136 248.542 22.5909 247.102 22.5909ZM269.358 41.8182V62H259.676V27.0909H268.903V33.25H269.312C270.085 31.2197 271.381 29.6136 273.199 28.4318C275.017 27.2348 277.222 26.6364 279.812 26.6364C282.237 26.6364 284.35 27.1667 286.153 28.2273C287.956 29.2879 289.358 30.803 290.358 32.7727C291.358 34.7273 291.858 37.0606 291.858 39.7727V62H282.176V41.5C282.191 39.3636 281.646 37.697 280.54 36.5C279.434 35.2879 277.911 34.6818 275.972 34.6818C274.669 34.6818 273.517 34.9621 272.517 35.5227C271.532 36.0833 270.759 36.9015 270.199 37.9773C269.653 39.0379 269.373 40.3182 269.358 41.8182ZM309.443 62.6591C307.216 62.6591 305.231 62.2727 303.489 61.5C301.746 60.7121 300.367 59.553 299.352 58.0227C298.352 56.4773 297.852 54.553 297.852 52.25C297.852 50.3106 298.208 48.6818 298.92 47.3636C299.633 46.0455 300.602 44.9848 301.83 44.1818C303.057 43.3788 304.451 42.7727 306.011 42.3636C307.587 41.9545 309.239 41.6667 310.966 41.5C312.996 41.2879 314.633 41.0909 315.875 40.9091C317.117 40.7121 318.019 40.4242 318.58 40.0455C319.14 39.6667 319.42 39.1061 319.42 38.3636V38.2273C319.42 36.7879 318.966 35.6742 318.057 34.8864C317.163 34.0985 315.89 33.7045 314.239 33.7045C312.496 33.7045 311.11 34.0909 310.08 34.8636C309.049 35.6212 308.367 36.5758 308.034 37.7273L299.08 37C299.534 34.8788 300.428 33.0455 301.761 31.5C303.095 29.9394 304.814 28.7424 306.92 27.9091C309.042 27.0606 311.496 26.6364 314.284 26.6364C316.223 26.6364 318.08 26.8636 319.852 27.3182C321.64 27.7727 323.223 28.4773 324.602 29.4318C325.996 30.3864 327.095 31.6136 327.898 33.1136C328.701 34.5985 329.102 36.3788 329.102 38.4545V62H319.92V57.1591H319.648C319.087 58.25 318.337 59.2121 317.398 60.0455C316.458 60.8636 315.33 61.5076 314.011 61.9773C312.693 62.4318 311.17 62.6591 309.443 62.6591ZM312.216 55.9773C313.64 55.9773 314.898 55.697 315.989 55.1364C317.08 54.5606 317.936 53.7879 318.557 52.8182C319.178 51.8485 319.489 50.75 319.489 49.5227V45.8182C319.186 46.0152 318.769 46.197 318.239 46.3636C317.723 46.5152 317.14 46.6591 316.489 46.7955C315.837 46.9167 315.186 47.0303 314.534 47.1364C313.883 47.2273 313.292 47.3106 312.761 47.3864C311.625 47.553 310.633 47.8182 309.784 48.1818C308.936 48.5455 308.277 49.0379 307.807 49.6591C307.337 50.2652 307.102 51.0227 307.102 51.9318C307.102 53.25 307.58 54.2576 308.534 54.9545C309.504 55.6364 310.731 55.9773 312.216 55.9773ZM346.295 41.8182V62H336.614V27.0909H345.841V33.25H346.25C347.023 31.2197 348.318 29.6136 350.136 28.4318C351.955 27.2348 354.159 26.6364 356.75 26.6364C359.174 26.6364 361.288 27.1667 363.091 28.2273C364.894 29.2879 366.295 30.803 367.295 32.7727C368.295 34.7273 368.795 37.0606 368.795 39.7727V62H359.114V41.5C359.129 39.3636 358.583 37.697 357.477 36.5C356.371 35.2879 354.848 34.6818 352.909 34.6818C351.606 34.6818 350.455 34.9621 349.455 35.5227C348.47 36.0833 347.697 36.9015 347.136 37.9773C346.591 39.0379 346.311 40.3182 346.295 41.8182ZM392.199 62.6818C388.623 62.6818 385.547 61.9242 382.972 60.4091C380.411 58.8788 378.441 56.7576 377.062 54.0455C375.699 51.3333 375.017 48.2121 375.017 44.6818C375.017 41.1061 375.706 37.9697 377.085 35.2727C378.479 32.5606 380.456 30.447 383.017 28.9318C385.578 27.4015 388.623 26.6364 392.153 26.6364C395.199 26.6364 397.866 27.1894 400.153 28.2955C402.441 29.4015 404.252 30.9545 405.585 32.9545C406.919 34.9545 407.653 37.303 407.79 40H398.653C398.396 38.2576 397.714 36.8561 396.608 35.7955C395.517 34.7197 394.085 34.1818 392.312 34.1818C390.812 34.1818 389.502 34.5909 388.381 35.4091C387.275 36.2121 386.411 37.3864 385.79 38.9318C385.169 40.4773 384.858 42.3485 384.858 44.5455C384.858 46.7727 385.161 48.6667 385.767 50.2273C386.388 51.7879 387.259 52.9773 388.381 53.7955C389.502 54.6136 390.812 55.0227 392.312 55.0227C393.419 55.0227 394.411 54.7955 395.29 54.3409C396.184 53.8864 396.919 53.2273 397.494 52.3636C398.085 51.4848 398.472 50.4318 398.653 49.2045H407.79C407.638 51.8712 406.911 54.2197 405.608 56.25C404.32 58.2652 402.54 59.8409 400.267 60.9773C397.994 62.1136 395.305 62.6818 392.199 62.6818ZM429.898 62.6818C426.307 62.6818 423.216 61.9545 420.625 60.5C418.049 59.0303 416.064 56.9545 414.67 54.2727C413.277 51.5758 412.58 48.3864 412.58 44.7045C412.58 41.1136 413.277 37.9621 414.67 35.25C416.064 32.5379 418.027 30.4242 420.557 28.9091C423.102 27.3939 426.087 26.6364 429.511 26.6364C431.814 26.6364 433.958 27.0076 435.943 27.75C437.943 28.4773 439.686 29.5758 441.17 31.0455C442.67 32.5152 443.837 34.3636 444.67 36.5909C445.504 38.803 445.92 41.3939 445.92 44.3636V47.0227H416.443V41.0227H436.807C436.807 39.6288 436.504 38.3939 435.898 37.3182C435.292 36.2424 434.451 35.4015 433.375 34.7955C432.314 34.1742 431.08 33.8636 429.67 33.8636C428.201 33.8636 426.898 34.2045 425.761 34.8864C424.64 35.553 423.761 36.4545 423.125 37.5909C422.489 38.7121 422.163 39.9621 422.148 41.3409V47.0455C422.148 48.7727 422.466 50.2652 423.102 51.5227C423.754 52.7803 424.67 53.75 425.852 54.4318C427.034 55.1136 428.436 55.4545 430.057 55.4545C431.133 55.4545 432.117 55.303 433.011 55C433.905 54.697 434.67 54.2424 435.307 53.6364C435.943 53.0303 436.428 52.2879 436.761 51.4091L445.716 52C445.261 54.1515 444.33 56.0303 442.92 57.6364C441.527 59.2273 439.723 60.4697 437.511 61.3636C435.314 62.2424 432.777 62.6818 429.898 62.6818Z" fill="white"/>
<path fill-rule="evenodd" clip-rule="evenodd" d="M11.5 0C5.14872 0 0 5.14873 0 11.5V49.3704H4.42593C10.7772 49.3704 15.9259 44.2216 15.9259 37.8704V0H11.5ZM9 50.963C4.02944 50.963 0 54.9924 0 59.963V63.7037H34C38.9706 63.7037 43 59.6743 43 54.7037V50.963H9Z" fill="url(#paint0_linear_469_35)"/>
<defs>
<linearGradient id="paint0_linear_469_35" x1="6.77919e-07" y1="50.1667" x2="54.1481" y2="31.8519" gradientUnits="userSpaceOnUse">
<stop stop-color="#FF7979"/>
<stop offset="1" stop-color="#6010C6"/>
</linearGradient>
</defs>
</svg>
