<svg width="11" height="11" viewBox="0 0 11 11" fill="none" xmlns="http://www.w3.org/2000/svg">
<path d="M9.62376 6.48204H1.08034C1.02633 6.48204 0.982129 6.52624 0.982129 6.58025V7.31686C0.982129 7.37088 1.02633 7.41507 1.08034 7.41507H8.51025L6.73871 9.66173C6.68838 9.72557 6.7338 9.82132 6.81606 9.82132H7.70613C7.76628 9.82132 7.82275 9.79432 7.86081 9.74644L9.93313 7.11798C10.1357 6.86016 9.95278 6.48204 9.62376 6.48204ZM9.91963 3.58472H2.48972L4.26126 1.33807C4.31159 1.27423 4.26617 1.17847 4.18391 1.17847H3.29385C3.23369 1.17847 3.17722 1.20548 3.13916 1.25336L1.06684 3.88182C0.864272 4.13963 1.0472 4.51775 1.37499 4.51775H9.91963C9.97365 4.51775 10.0178 4.47356 10.0178 4.41954V3.68293C10.0178 3.62891 9.97365 3.58472 9.91963 3.58472Z"/>
</svg>
